<svg width="16.000000" height="16.000000" viewBox="0 0 16 16" fill="none" xmlns="http://www.w3.org/2000/svg" xmlns:xlink="http://www.w3.org/1999/xlink">
	<desc>
			Created with Pixso.
	</desc>
	<defs/>
	<path id="Vector" d="M8 14C8 15.1 7.1 16 6 16C4.89 16 4 15.1 4 14C4 12.89 4.89 12 6 12C7.1 12 8 12.89 8 14Z" fill="#0B3589" fill-opacity="1.000000" fill-rule="evenodd"/>
	<path id="Vector" d="M14 14C14 15.1 13.1 16 12 16C10.89 16 10 15.1 10 14C10 12.89 10.89 12 12 12C13.1 12 14 12.89 14 14Z" fill="#0B3589" fill-opacity="1.000000" fill-rule="evenodd"/>
	<path id="Vector" d="M15.68 3.55C15.35 3.16 14.87 2.92 14.39 2.92L5.27 2.92L4.79 1.25C4.64 0.54 4 0 3.2 0L1.6 0C0.72 0 0 0.7 0 1.57C0 2.43 0.72 3.14 1.6 3.14L1.83 3.14L3.2 9.74C3.35 10.52 4 11 4.79 11L12.79 11C13.52 11 14.08 10.52 14.31 9.9L15.91 4.97C16.08 4.5 16 4.02 15.68 3.55Z" fill="#0B3589" fill-opacity="1.000000" fill-rule="evenodd"/>
</svg>
