<svg width="35.000000" height="40.773438" viewBox="0 0 35 40.7734" fill="none" xmlns="http://www.w3.org/2000/svg" xmlns:xlink="http://www.w3.org/1999/xlink">
	<desc>
			Created with Pixso.
	</desc>
	<defs/>
	<path id="Subtract" d="M3.94312 10.4177C3.98053 10.4177 4.01996 10.4165 4.06165 10.4148C4.78815 10.3882 6.18903 10.3367 9.26477 17.5134C10.3488 15.5425 12.9111 10.2207 11.9256 2.92798C11.892 2.70972 11.8527 2.50269 11.8154 2.30664C11.6342 1.35303 11.5023 0.65918 12.3198 0.168701C13.2814 -0.408203 14.5244 0.609863 15.5911 1.4834C15.6177 1.50513 15.6441 1.52686 15.6705 1.54834C16.7545 2.4353 22.0762 6.47583 25.2297 13.4729C25.9196 12.4873 26.5109 11.0093 26.5109 10.4177C26.5109 10.2676 26.4726 9.97046 26.4253 9.60327C26.2866 8.52588 26.0699 6.84326 26.5109 6.47583C27.1022 5.98315 28.0876 5.6875 28.679 6.27881C29.2703 6.87012 34.0006 11.2063 34.9861 21.554C35.0846 24.5103 34.789 31.606 29.763 36.2375C26.5109 38.6028 24.0471 40.6724 17.4443 40.771C10.8416 40.8694 2.95764 38.1101 0.888123 31.2117C-0.195923 28.1567 -0.590149 24.2146 1.47937 19.2871C1.97217 17.5134 2.4649 15.6409 2.76056 13.4729C2.77148 13.2864 2.78003 13.1084 2.78815 12.9387C2.85303 11.5854 2.89221 10.7681 3.94312 10.4177ZM13.4039 25.4958C13.3053 25.1016 13.2067 24.8059 12.6155 24.2146C11.4329 23.8206 10.8416 24.5103 10.6445 24.9045C10.0532 25.8901 10.1517 29.5364 10.3488 30.6204C11.4329 36.7305 15.8676 38.0115 17.6415 38.0115C19.4153 38.0115 20.6965 37.0261 21.1892 36.6318C24.6384 34.3652 24.737 28.6494 24.737 27.8611C24.8355 24.5103 23.0616 21.8496 22.5689 21.1597C22.0762 20.4697 21.3864 20.4697 20.795 20.5684C20.2037 20.667 19.9081 21.554 19.9081 22.7366C19.711 28.4524 17.2473 29.9304 16.4589 30.0291C14.685 30.2261 13.5024 25.8901 13.4039 25.4958Z" clip-rule="evenodd" fill="#FF60C3" fill-opacity="1.000000" fill-rule="evenodd"/>
</svg>
