<svg width="40.000000" height="40.000000" viewBox="0 0 40 40" fill="none" xmlns="http://www.w3.org/2000/svg" xmlns:xlink="http://www.w3.org/1999/xlink">
	<desc>
			Created with Pixso.
	</desc>
	<defs>
		<clipPath id="clip108_7111">
			<rect id="8665305_envelope_email_icon 1" rx="0.000000" width="39.000000" height="39.000000" transform="translate(0.500000 0.500000)" fill="white" fill-opacity="0"/>
		</clipPath>
	</defs>
	<rect id="8665305_envelope_email_icon 1" rx="0.000000" width="39.000000" height="39.000000" transform="translate(0.500000 0.500000)" fill="#FFFFFF" fill-opacity="0"/>
	<g clip-path="url(#clip108_7111)">
		<path id="Vector" d="M20 27.5C18.7 27.5 17.41 27.07 16.31 26.21L0 13.53L0 31.25C0 33.32 1.67 35 3.75 35L36.25 35C38.32 35 40 33.32 40 31.25L40 13.53L23.68 26.22C22.58 27.07 21.28 27.5 20 27.5ZM1.27 11.35L17.85 24.25C19.11 25.23 20.88 25.23 22.15 24.25L38.73 11.35C39.46 10.72 40 9.76 40 8.75C40 6.67 38.32 5 36.25 5L3.75 5C1.67 5 0 6.67 0 8.75C0 9.76 0.46 10.72 1.27 11.35Z" fill="#000000" fill-opacity="1.000000" fill-rule="nonzero"/>
	</g>
</svg>
