<svg width="72.000000" height="72.000000" viewBox="0 0 72 72" fill="none" xmlns="http://www.w3.org/2000/svg" xmlns:xlink="http://www.w3.org/1999/xlink">
	<desc>
			Created with Pixso.
	</desc>
	<defs/>
	<rect id="Rectangle 1201" width="72.000000" height="72.000000" fill="#D9D9D9" fill-opacity="0"/>
	<path id="Vector" d="M33.42 6.23L30.21 3.99C29.22 3.29 28.97 1.92 29.67 0.93C30.37 -0.06 31.74 -0.3 32.74 0.39L39.92 5.41L39.94 5.43C40.43 5.77 40.74 6.27 40.84 6.81C40.95 7.37 40.84 7.98 40.48 8.49L40.47 8.51L35.44 15.68C34.74 16.67 33.37 16.91 32.37 16.22C31.38 15.52 31.13 14.15 31.83 13.16L33.61 10.62C18.93 11.83 7.4 24.1 7.4 39.07C7.4 54.83 20.2 67.6 36 67.6C51.79 67.6 64.6 54.83 64.6 39.07C64.6 37.85 65.58 36.87 66.8 36.87C68.01 36.87 69 37.85 69 39.07C69 57.25 54.22 72 36 72C17.77 72 3 57.25 3 39.07C3 21.74 16.4 7.54 33.42 6.23ZM58 39.07C58 51.19 48.15 61.02 36 61.02C23.84 61.02 14 51.19 14 39.07C14 26.94 23.84 17.11 36 17.11C48.15 17.11 58 26.94 58 39.07ZM29.5 52.35C29.23 52.35 29.01 52.26 28.84 52.09C28.7 51.92 28.63 51.72 28.63 51.48L28.63 47.49L25.87 47.49C25.62 47.49 25.42 47.41 25.25 47.24Q25.13 47.12 25.06 46.97Q25 46.81 25 46.62L25 45.5Q25 45.31 25.06 45.16Q25.13 45.01 25.25 44.89C25.42 44.72 25.62 44.63 25.87 44.63L28.63 44.63L28.63 42.71L25.87 42.71C25.62 42.71 25.42 42.63 25.25 42.46C25.08 42.29 25 42.07 25 41.81L25 39.85C25 39.58 25.08 39.38 25.25 39.23C25.42 39.07 25.62 38.98 25.87 38.98L28.63 38.98L28.63 27.9Q28.63 27.56 28.78 27.33Q28.81 27.28 28.84 27.25C29.01 27.08 29.23 26.99 29.5 26.99L39.19 26.99C41.1 26.99 42.76 27.29 44.16 27.9Q45.55 28.47 46.52 29.45Q47.03 29.96 47.43 30.58C48.2 31.76 48.59 33.25 48.59 35.03C48.59 36.77 48.2 38.21 47.43 39.34C46.65 40.45 45.56 41.3 44.16 41.88C42.76 42.43 41.1 42.71 39.19 42.71L33.82 42.71L33.82 44.63L39.73 44.63C40 44.63 40.2 44.72 40.35 44.89C40.52 45.05 40.6 45.26 40.6 45.5L40.6 46.62C40.6 46.87 40.52 47.07 40.35 47.24C40.2 47.41 40 47.49 39.73 47.49L33.82 47.49L33.82 51.48C33.82 51.72 33.73 51.92 33.56 52.09C33.39 52.26 33.17 52.35 32.91 52.35L29.5 52.35ZM39.01 38.98L33.74 38.98L33.74 31.01L39.01 31.01C40.53 31.01 41.64 31.39 42.35 32.14C43.05 32.86 43.4 33.83 43.4 35.03C43.4 36.34 43.01 37.33 42.24 38C41.49 38.66 40.41 38.98 39.01 38.98Z" fill="#115EFB" fill-opacity="1.000000" fill-rule="evenodd"/>
</svg>
