<svg width="48.000000" height="48.000000" viewBox="0 0 48 48" fill="none" xmlns="http://www.w3.org/2000/svg" xmlns:xlink="http://www.w3.org/1999/xlink">
	<desc>
			Created with Pixso.
	</desc>
	<defs>
		<clipPath id="clip105_5904">
			<rect id="9310104_star_sparkles_stars_sparkle_icon 1" rx="0.000000" width="47.000000" height="47.000000" transform="translate(0.500000 0.500000)" fill="white" fill-opacity="0"/>
		</clipPath>
	</defs>
	<rect id="9310104_star_sparkles_stars_sparkle_icon 1" rx="0.000000" width="47.000000" height="47.000000" transform="translate(0.500000 0.500000)" fill="#FFFFFF" fill-opacity="0"/>
	<g clip-path="url(#clip105_5904)">
		<path id="Vector" d="M20.62 46.75C20.41 46.75 20.21 46.67 20.05 46.54C19.89 46.41 19.78 46.22 19.74 46.02C17.18 32.68 15.36 30.86 2.02 28.29C1.81 28.25 1.62 28.14 1.49 27.98C1.36 27.82 1.29 27.62 1.29 27.41C1.29 27.2 1.36 27 1.49 26.84C1.62 26.68 1.81 26.57 2.02 26.53C15.36 23.97 17.18 22.15 19.74 8.8C19.78 8.6 19.89 8.41 20.05 8.28C20.21 8.15 20.41 8.07 20.62 8.07C20.83 8.07 21.03 8.15 21.2 8.28C21.36 8.41 21.47 8.6 21.51 8.8C24.07 22.15 25.89 23.97 39.23 26.53C39.43 26.57 39.62 26.68 39.75 26.84C39.89 27 39.96 27.2 39.96 27.41C39.96 27.62 39.89 27.82 39.75 27.98C39.62 28.14 39.43 28.25 39.23 28.29C25.89 30.86 24.07 32.68 21.51 46.02C21.47 46.22 21.36 46.41 21.2 46.54C21.03 46.67 20.83 46.75 20.62 46.75Z" fill="#00E398" fill-opacity="1.000000" fill-rule="nonzero"/>
		<path id="Vector" d="M45.24 8.09C40.54 7.19 40.02 6.67 39.12 1.97C39.08 1.77 38.97 1.58 38.81 1.45C38.65 1.32 38.45 1.24 38.24 1.24C38.03 1.24 37.83 1.32 37.66 1.45C37.5 1.58 37.39 1.77 37.35 1.97C36.45 6.67 35.94 7.19 31.24 8.09C31.03 8.13 30.85 8.24 30.71 8.4C30.58 8.56 30.51 8.76 30.51 8.97C30.51 9.18 30.58 9.39 30.71 9.55C30.85 9.71 31.03 9.82 31.24 9.86C35.94 10.76 36.45 11.27 37.35 15.97C37.39 16.18 37.5 16.36 37.66 16.5C37.83 16.63 38.03 16.7 38.24 16.7C38.45 16.7 38.65 16.63 38.81 16.5C38.97 16.36 39.08 16.18 39.12 15.97C40.02 11.27 40.54 10.76 45.24 9.86C45.44 9.82 45.63 9.71 45.76 9.55C45.9 9.39 45.97 9.18 45.97 8.97C45.97 8.76 45.9 8.56 45.76 8.4C45.63 8.24 45.44 8.13 45.24 8.09Z" fill="#00E398" fill-opacity="1.000000" fill-rule="nonzero"/>
		<path id="Vector" d="M12.52 13.42C9.48 12.84 9.15 12.51 8.57 9.47C8.54 9.33 8.47 9.21 8.37 9.13C8.26 9.04 8.13 9 7.99 9C7.86 9 7.73 9.04 7.62 9.13C7.52 9.21 7.45 9.33 7.42 9.47C6.84 12.51 6.51 12.84 3.47 13.42C3.33 13.45 3.21 13.52 3.13 13.62C3.04 13.73 3 13.86 3 14C3 14.13 3.04 14.26 3.13 14.37C3.21 14.47 3.33 14.54 3.47 14.57C6.51 15.15 6.84 15.48 7.42 18.52C7.45 18.66 7.52 18.78 7.62 18.86C7.73 18.95 7.86 19 7.99 19C8.13 19 8.26 18.95 8.37 18.86C8.47 18.78 8.54 18.66 8.57 18.52C9.15 15.48 9.48 15.15 12.52 14.57C12.66 14.54 12.78 14.47 12.86 14.37C12.95 14.26 13 14.13 13 14C13 13.86 12.95 13.73 12.86 13.62C12.78 13.52 12.66 13.45 12.52 13.42Z" fill="#00E398" fill-opacity="1.000000" fill-rule="nonzero"/>
	</g>
</svg>
