<svg width="72.000000" height="72.000000" viewBox="0 0 72 72" fill="none" xmlns="http://www.w3.org/2000/svg" xmlns:xlink="http://www.w3.org/1999/xlink">
	<desc>
			Created with Pixso.
	</desc>
	<defs>
		<clipPath id="clip108_7093">
			<rect id="clarity:license-solid" rx="0.000000" width="71.000000" height="71.000000" transform="translate(0.500000 0.500000)" fill="white" fill-opacity="0"/>
		</clipPath>
	</defs>
	<rect id="clarity:license-solid" rx="0.000000" width="71.000000" height="71.000000" transform="translate(0.500000 0.500000)" fill="#FFFFFF" fill-opacity="0"/>
	<g clip-path="url(#clip108_7093)">
		<path id="Vector" d="M38 60L8 60C6.93 60 5.92 59.57 5.17 58.82C4.42 58.07 4 57.06 4 56L4 16C4 14.93 4.42 13.92 5.17 13.17C5.92 12.42 6.93 12 8 12L64 12C65.06 12 66.07 12.42 66.82 13.17C67.57 13.92 68 14.93 68 16L68 36.74C65.33 33.34 61.45 31.11 57.18 30.52C52.91 29.92 48.57 31 45.08 33.54C41.59 36.07 39.21 39.86 38.45 44.11C37.7 48.35 38.61 52.73 41.02 56.31L39.16 58.6L38 60ZM14 24L14 27.2L48 27.2L48 24L14 24ZM14 35.2L36 35.2L36 32L14 32L14 35.2ZM14 49.2L34 49.2L34 46L14 46L14 49.2Z" fill="#00E398" fill-opacity="1.000000" fill-rule="nonzero"/>
		<path id="Vector" d="M67.66 47.18C67.66 45.07 67.14 42.99 66.15 41.13C65.15 39.27 63.71 37.69 61.95 36.52C60.19 35.36 58.18 34.65 56.08 34.46C53.98 34.26 51.86 34.6 49.92 35.42C47.98 36.25 46.28 37.54 44.96 39.19C43.64 40.84 42.76 42.79 42.38 44.86C42 46.94 42.15 49.08 42.8 51.08C43.45 53.09 44.59 54.9 46.12 56.35L42.24 61.1L44.04 68.31L51.36 59.39C53.67 60.08 56.14 60.08 58.46 59.39L65.78 68.31L67.58 61.1L63.7 56.35C64.94 55.17 65.94 53.75 66.62 52.17C67.3 50.59 67.65 48.89 67.66 47.18ZM46.18 47.18C46.15 45.44 46.64 43.74 47.59 42.29C48.54 40.83 49.89 39.7 51.49 39.02C53.08 38.34 54.84 38.14 56.55 38.47C58.25 38.79 59.82 39.62 61.05 40.83C62.29 42.05 63.13 43.61 63.48 45.31C63.82 47 63.66 48.77 63 50.37C62.34 51.98 61.22 53.35 59.78 54.31C58.34 55.28 56.65 55.79 54.92 55.79C52.62 55.8 50.41 54.9 48.78 53.28C47.14 51.67 46.22 49.47 46.2 47.18L46.18 47.18Z" fill="#00E398" fill-opacity="1.000000" fill-rule="nonzero"/>
	</g>
</svg>
