<svg width="40.000000" height="40.000000" viewBox="0 0 40 40" fill="none" xmlns="http://www.w3.org/2000/svg" xmlns:xlink="http://www.w3.org/1999/xlink">
	<desc>
			Created with Pixso.
	</desc>
	<defs>
		<clipPath id="clip105_7074">
			<rect id="1564515_call_device_mobile_phone_smartphone_icon 1" rx="0.000000" width="39.000000" height="39.000000" transform="translate(0.500000 0.500000)" fill="white" fill-opacity="0"/>
		</clipPath>
	</defs>
	<rect id="1564515_call_device_mobile_phone_smartphone_icon 1" rx="0.000000" width="39.000000" height="39.000000" transform="translate(0.500000 0.500000)" fill="#FFFFFF" fill-opacity="0"/>
	<g clip-path="url(#clip105_7074)">
		<path id="mobile" d="M33.33 6.66C33.33 3 30.33 0 26.66 0L13.33 0C9.66 0 6.66 3 6.66 6.66L6.66 33.33C6.66 37 9.66 40 13.33 40L26.66 40C30.33 40 33.33 37 33.33 33.33L33.33 6.66ZM21.66 36.66L18.33 36.66C17.33 36.66 16.66 36 16.66 35C16.66 34 17.33 33.33 18.33 33.33L21.66 33.33C22.66 33.33 23.33 34 23.33 35C23.33 36 22.66 36.66 21.66 36.66ZM29.99 28.33C29.99 29.33 29.33 30 28.33 30L11.66 30C10.66 30 9.99 29.33 9.99 28.33L9.99 8.33C9.99 7.33 10.66 6.66 11.66 6.66L28.33 6.66C29.33 6.66 29.99 7.33 29.99 8.33L29.99 28.33Z" fill="#0C368A" fill-opacity="1.000000" fill-rule="nonzero"/>
	</g>
</svg>
