<svg width="21.333374" height="32.000000" viewBox="0 0 21.3334 32" fill="none" xmlns="http://www.w3.org/2000/svg" xmlns:xlink="http://www.w3.org/1999/xlink">
	<desc>
			Created with Pixso.
	</desc>
	<defs/>
	<path id="mobile" d="M21.33 5.33C21.33 2.39 18.93 0 16 0L5.33 0C2.4 0 0 2.39 0 5.33L0 26.66C0 29.6 2.4 32 5.33 32L16 32C18.93 32 21.33 29.6 21.33 26.66L21.33 5.33ZM12 29.33L9.33 29.33C8.53 29.33 8 28.79 8 28C8 27.2 8.53 26.66 9.33 26.66L12 26.66C12.8 26.66 13.33 27.2 13.33 28C13.33 28.79 12.8 29.33 12 29.33ZM18.66 22.66C18.66 23.46 18.13 24 17.33 24L4 24C3.19 24 2.66 23.46 2.66 22.66L2.66 6.66C2.66 5.86 3.19 5.33 4 5.33L17.33 5.33C18.13 5.33 18.66 5.86 18.66 6.66L18.66 22.66Z" fill="#B7CEFF" fill-opacity="1.000000" fill-rule="nonzero"/>
</svg>
