<svg width="40.000000" height="40.000000" viewBox="0 0 40 40" fill="none" xmlns="http://www.w3.org/2000/svg" xmlns:xlink="http://www.w3.org/1999/xlink">
	<desc>
			Created with Pixso.
	</desc>
	<defs>
		<clipPath id="clip108_7116">
			<rect id="9023583_map_pin_fill_icon 1" rx="0.000000" width="39.000000" height="39.000000" transform="translate(0.500000 0.500000)" fill="white" fill-opacity="0"/>
		</clipPath>
	</defs>
	<rect id="9023583_map_pin_fill_icon 1" rx="0.000000" width="39.000000" height="39.000000" transform="translate(0.500000 0.500000)" fill="#FFFFFF" fill-opacity="0"/>
	<g clip-path="url(#clip108_7116)">
		<path id="Vector" d="M20 2.5C16.35 2.5 12.85 3.95 10.28 6.53C7.7 9.1 6.25 12.6 6.25 16.25C6.25 28.01 18.75 36.9 19.28 37.28C19.49 37.42 19.74 37.49 20 37.49C20.25 37.49 20.5 37.42 20.71 37.28C21.25 36.9 33.75 28.01 33.75 16.25C33.74 12.6 32.29 9.1 29.71 6.53C27.14 3.95 23.64 2.5 20 2.5ZM20 11.25C20.98 11.25 21.95 11.54 22.77 12.09C23.6 12.64 24.24 13.42 24.61 14.33C24.99 15.25 25.09 16.25 24.9 17.22C24.71 18.19 24.23 19.08 23.53 19.78C22.83 20.48 21.94 20.96 20.97 21.15C20 21.34 19 21.24 18.08 20.86C17.17 20.49 16.39 19.85 15.84 19.02C15.29 18.2 15 17.23 15 16.25C15 14.92 15.52 13.65 16.46 12.71C17.4 11.77 18.67 11.25 20 11.25Z" fill="#000000" fill-opacity="1.000000" fill-rule="nonzero"/>
	</g>
</svg>
