<svg width="16.000000" height="16.000000" viewBox="0 0 16 16" fill="none" xmlns="http://www.w3.org/2000/svg" xmlns:xlink="http://www.w3.org/1999/xlink">
	<desc>
			Created with Pixso.
	</desc>
	<defs/>
	<path id="Vector" d="M12 4C12 6.2 10.2 8 8 8C5.79 8 4 6.2 4 4C4 1.79 5.79 0 8 0C10.2 0 12 1.79 12 4Z" fill="#115EFB" fill-opacity="1.000000" fill-rule="evenodd"/>
	<path id="Vector" d="M16 14L16 15C16 15.26 15.89 15.51 15.7 15.7C15.51 15.89 15.26 16 15 16L1 16C0.73 16 0.48 15.89 0.29 15.7C0.1 15.51 0 15.26 0 15L0 14C0 12.4 0.63 10.88 1.75 9.75C2.88 8.63 4.4 8 6 8L10 8C11.59 8 13.11 8.63 14.24 9.75C15.36 10.88 16 12.4 16 14Z" fill="#115EFB" fill-opacity="1.000000" fill-rule="evenodd"/>
</svg>
