<svg width="72.000000" height="72.000000" viewBox="0 0 72 72" fill="none" xmlns="http://www.w3.org/2000/svg" xmlns:xlink="http://www.w3.org/1999/xlink">
	<desc>
			Created with Pixso.
	</desc>
	<defs>
		<clipPath id="clip108_7106">
			<rect id="9036037_rocket_sharp_icon 2" rx="0.000000" width="71.000000" height="71.000000" transform="translate(0.500000 0.500000)" fill="white" fill-opacity="0"/>
		</clipPath>
	</defs>
	<rect id="9036037_rocket_sharp_icon 2" rx="0.000000" width="71.000000" height="71.000000" transform="translate(0.500000 0.500000)" fill="#FFFFFF" fill-opacity="0"/>
	<g clip-path="url(#clip108_7106)">
		<path id="Vector" d="M67.16 5.38C67.14 5.25 67.08 5.14 66.99 5.05C66.9 4.95 66.79 4.89 66.66 4.86C58.43 2.85 39.4 10.02 29.09 20.33C27.25 22.15 25.57 24.13 24.08 26.25C20.9 25.97 17.72 26.2 15.01 27.38C7.36 30.75 5.13 39.53 4.51 43.31C4.48 43.51 4.49 43.73 4.55 43.93C4.61 44.13 4.72 44.31 4.86 44.46C5.01 44.62 5.19 44.73 5.38 44.81C5.58 44.88 5.79 44.91 6 44.88L18.28 43.53C18.29 44.45 18.34 45.38 18.44 46.3C18.51 46.94 18.79 47.53 19.25 47.99L24 52.73C24.45 53.18 25.05 53.47 25.69 53.53C26.6 53.63 27.52 53.69 28.44 53.7L27.09 65.96C27.07 66.17 27.1 66.38 27.17 66.58C27.24 66.77 27.36 66.95 27.51 67.09C27.67 67.24 27.85 67.34 28.05 67.41C28.25 67.47 28.46 67.48 28.67 67.44C32.44 66.84 41.24 64.61 44.58 56.97C45.76 54.26 46 51.09 45.73 47.93C47.85 46.43 49.84 44.76 51.67 42.92C62.01 32.63 69.15 14.02 67.16 5.38ZM41.35 30.64C40.4 29.7 39.76 28.5 39.5 27.19C39.24 25.88 39.37 24.52 39.88 23.29C40.39 22.05 41.26 21 42.37 20.25C43.48 19.51 44.78 19.12 46.12 19.12C47.46 19.12 48.76 19.51 49.87 20.25C50.98 21 51.85 22.05 52.36 23.29C52.87 24.52 53 25.88 52.74 27.19C52.48 28.5 51.84 29.7 50.89 30.64C50.27 31.27 49.52 31.77 48.7 32.11C47.88 32.45 47.01 32.62 46.12 32.62C45.23 32.62 44.36 32.45 43.54 32.11C42.72 31.77 41.97 31.27 41.35 30.64Z" fill="#000000" fill-opacity="1.000000" fill-rule="nonzero"/>
		<path id="Vector" d="M23.68 56.16C22.91 56.94 21.67 57.24 20.18 57.5C16.84 58.06 13.89 55.18 14.49 51.8C14.72 50.52 15.39 48.72 15.82 48.3C15.91 48.21 15.97 48.09 15.99 47.96C16.01 47.84 16 47.71 15.94 47.59C15.88 47.47 15.79 47.38 15.68 47.32C15.56 47.26 15.43 47.23 15.3 47.25C13.43 47.48 11.7 48.33 10.36 49.66C7.06 52.97 6.75 65.25 6.75 65.25C6.75 65.25 19.03 64.93 22.34 61.62C23.67 60.29 24.52 58.55 24.75 56.68C24.8 56.09 24.08 55.74 23.68 56.16Z" fill="#000000" fill-opacity="1.000000" fill-rule="nonzero"/>
	</g>
</svg>
