<svg width="75.257812" height="51.000000" viewBox="0 0 75.2578 51" fill="none" xmlns="http://www.w3.org/2000/svg" xmlns:xlink="http://www.w3.org/1999/xlink">
	<desc>
			Created with Pixso.
	</desc>
	<defs/>
	<path id="Vector" d="M57 30C57 41.59 47.59 51 36 51C24.4 51 15 41.59 15 30C15 18.4 24.4 9 36 9C47.59 9 57 18.4 57 30Z" fill="#FF60C3" fill-opacity="1.000000" fill-rule="evenodd"/>
	<path id="Union" d="M31.25 26.46C31.23 27.84 30.79 29.84 29.28 30.32C27.92 30.76 26.94 29.48 26.56 28.33C26.08 26.87 26.17 25.29 26.8 23.89C27.31 22.81 28.53 21.94 29.71 22.7C30.88 23.45 31.24 25.04 31.25 26.33C31.25 26.36 31.25 26.39 31.25 26.41C31.25 26.43 31.25 26.44 31.25 26.46Z" fill="#000000" fill-opacity="1.000000" fill-rule="nonzero"/>
	<path id="Union" d="M46.23 26.19C46.25 26.26 46.25 26.33 46.25 26.41C46.24 27.8 45.71 29.83 43.89 30.32C42.25 30.76 41.07 29.48 40.62 28.33C40.05 26.87 40.15 25.29 40.91 23.89C41.53 22.81 43.01 21.94 44.41 22.7C45.73 23.42 46.18 24.92 46.23 26.19Z" fill="#000000" fill-opacity="1.000000" fill-rule="nonzero"/>
	<path id="Vector" d="M29.11 35.57C31.11 37.06 33.48 37.9 35.92 37.99C37.14 38.03 38.37 37.87 39.56 37.53C40.13 37.37 40.69 37.16 41.23 36.91C41.76 36.67 42.49 36.39 42.86 35.9C42.93 35.82 42.98 35.71 42.99 35.59C43 35.48 42.98 35.36 42.93 35.26C42.87 35.16 42.79 35.09 42.69 35.04C42.59 34.99 42.48 34.98 42.38 35.01C41.83 35.13 41.31 35.56 40.79 35.79C40.29 36.01 39.78 36.21 39.25 36.36C38.16 36.68 37.04 36.84 35.92 36.86C33.62 36.93 31.36 36.32 29.37 35.1C29.08 34.93 28.85 35.38 29.11 35.57Z" fill="#000000" fill-opacity="1.000000" fill-rule="nonzero"/>
	<path id="Vector" d="M28.69 36.15C28.77 36.1 28.85 36.05 28.92 35.99L29.06 35.87C29.17 35.78 29.27 35.67 29.37 35.57C29.54 35.38 29.69 35.19 29.81 35C29.83 34.96 29.83 34.93 29.83 34.9C29.82 34.87 29.81 34.84 29.78 34.82C29.73 34.78 29.64 34.76 29.54 34.77C29.43 34.78 29.32 34.82 29.21 34.87C29.11 34.93 29.04 35 29 35.08C28.96 35.15 28.92 35.22 28.87 35.29L28.91 35.22C28.78 35.42 28.62 35.62 28.42 35.81L28.48 35.74C28.4 35.83 28.31 35.91 28.24 35.99C28.19 36.04 28.17 36.09 28.18 36.13C28.18 36.18 28.21 36.21 28.26 36.23C28.32 36.25 28.39 36.25 28.46 36.23C28.54 36.22 28.62 36.19 28.69 36.15Z" fill="#000000" fill-opacity="1.000000" fill-rule="nonzero"/>
	<path id="Vector" d="M43 34.42C43.02 35.22 43.16 36.01 43.38 36.72C43.41 36.78 43.44 36.84 43.47 36.88C43.5 36.93 43.54 36.96 43.58 36.98C43.63 37 43.67 37 43.71 36.99C43.75 36.98 43.8 36.96 43.83 36.92C43.87 36.88 43.9 36.83 43.93 36.78C43.95 36.72 43.97 36.65 43.98 36.58C44 36.51 44 36.44 43.99 36.37C43.99 36.3 43.97 36.23 43.95 36.16C43.89 36.02 43.83 35.87 43.79 35.71C43.76 35.63 43.74 35.56 43.71 35.48C43.7 35.44 43.69 35.4 43.68 35.35C43.61 35.02 43.55 34.68 43.52 34.33C43.5 34.23 43.46 34.13 43.41 34.07C43.36 34.01 43.29 33.98 43.23 34C43.16 34.01 43.11 34.07 43.06 34.15C43.02 34.23 43 34.34 43 34.45L43 34.42Z" fill="#000000" fill-opacity="1.000000" fill-rule="nonzero"/>
	<path id="Vector" d="M26.73 20.35C26.91 20.13 27.12 19.93 27.34 19.74C27.57 19.58 27.83 19.45 28.1 19.37C28.64 19.2 29.21 19.2 29.75 19.37C29.85 19.4 29.96 19.39 30.05 19.34C30.14 19.28 30.21 19.2 30.24 19.09C30.27 18.99 30.25 18.88 30.2 18.79C30.15 18.69 30.06 18.62 29.96 18.59C29.28 18.34 28.53 18.35 27.86 18.63C27.22 18.89 26.51 19.38 26.27 20.06C26.17 20.33 26.55 20.52 26.74 20.33L26.73 20.35Z" fill="#000000" fill-opacity="1.000000" fill-rule="nonzero"/>
	<path id="Vector" d="M40.83 20.36C41.59 19.95 42.43 19.69 43.3 19.58C43.65 19.56 44.01 19.61 44.34 19.71C44.63 19.83 44.9 20 45.14 20.2C45.25 20.31 45.4 20.37 45.56 20.38C45.71 20.38 45.87 20.34 46 20.25C46.12 20.16 46.21 20.02 46.24 19.88C46.27 19.73 46.25 19.58 46.17 19.44C45.63 18.6 44.4 18.32 43.41 18.44C42.33 18.64 41.31 19.08 40.44 19.73C40.35 19.78 40.29 19.86 40.27 19.96C40.24 20.05 40.25 20.15 40.31 20.23C40.36 20.31 40.44 20.37 40.54 20.4C40.63 20.42 40.74 20.41 40.83 20.36Z" fill="#000000" fill-opacity="1.000000" fill-rule="nonzero"/>
	<path id="Vector" d="M7.3 6.27C4.79 7.67 2.75 9.78 1.44 12.34C0.28 14.63 -1.08 18.56 1.33 20.53C2.54 21.53 4.08 21.18 5.28 20.35C5.87 20 6.33 19.45 6.57 18.81C6.66 18.54 6.64 18.24 6.51 17.98C6.39 17.71 6.18 17.51 5.91 17.4C4.69 16.91 3.31 17.95 2.63 18.86C1.81 20.04 1.33 21.43 1.24 22.86C1.02 24.6 1.47 26.36 2.5 27.79C2.95 28.42 3.56 28.93 4.25 29.29C4.95 29.65 5.71 29.83 6.49 29.84C6.6 29.84 6.7 29.8 6.77 29.72C6.85 29.65 6.89 29.55 6.89 29.45C6.89 29.34 6.85 29.24 6.77 29.17C6.7 29.09 6.6 29.05 6.49 29.05C3.97 28.96 2.26 26.67 2.06 24.3C1.9 22.28 2.49 19.12 4.63 18.27C4.98 18.13 5.94 17.9 5.78 18.59C5.65 19.21 4.91 19.66 4.4 19.94C3.3 20.56 2.08 20.47 1.33 19.37C0.59 18.28 0.75 16.8 1.04 15.55C1.31 14.43 1.72 13.35 2.27 12.33C3.5 10.03 5.35 8.12 7.62 6.84C7.69 6.79 7.74 6.72 7.76 6.64C7.78 6.55 7.77 6.47 7.73 6.39C7.68 6.32 7.61 6.27 7.53 6.25C7.45 6.22 7.36 6.23 7.29 6.27L7.3 6.27Z" fill="#115EFB" fill-opacity="1.000000" fill-rule="nonzero"/>
	<path id="Vector" d="M23.82 2.87L24.76 4.95C24.79 5.01 24.85 5.06 24.92 5.08C24.99 5.09 25.07 5.09 25.13 5.05C25.19 5.01 25.24 4.95 25.26 4.88C25.28 4.81 25.27 4.74 25.24 4.68L24.29 2.6C24.25 2.54 24.19 2.5 24.12 2.48C24.05 2.46 23.98 2.47 23.91 2.5C23.85 2.54 23.81 2.6 23.79 2.67C23.77 2.74 23.78 2.81 23.81 2.88L23.82 2.87Z" fill="#000000" fill-opacity="1.000000" fill-rule="nonzero"/>
	<path id="Vector" d="M34.17 0.27C34.24 1.07 34.17 1.87 33.98 2.65C33.88 3.03 34.47 3.19 34.56 2.81C34.76 1.98 34.81 1.12 34.72 0.27C34.72 0.2 34.69 0.13 34.64 0.08C34.59 0.02 34.52 0 34.44 0C34.37 0 34.3 0.02 34.25 0.08C34.2 0.13 34.17 0.2 34.17 0.27Z" fill="#000000" fill-opacity="1.000000" fill-rule="nonzero"/>
	<path id="Vector" d="M43.73 1.02C43.76 1.88 43.59 2.73 43.23 3.51C43.19 3.58 43.18 3.66 43.2 3.74C43.22 3.82 43.27 3.88 43.34 3.93C43.41 3.97 43.49 3.98 43.57 3.96C43.65 3.94 43.72 3.89 43.76 3.82C44.14 2.94 44.31 1.98 44.24 1.02C44.24 0.96 44.22 0.89 44.17 0.84C44.13 0.79 44.06 0.76 44 0.76C43.93 0.76 43.86 0.79 43.82 0.83C43.77 0.88 43.74 0.95 43.74 1.02L43.73 1.02Z" fill="#000000" fill-opacity="1.000000" fill-rule="nonzero"/>
	<path id="Vector" d="M53.08 3.52C52.55 4.56 52.16 5.66 51.9 6.8C51.8 7.21 52.43 7.38 52.52 6.97C52.76 5.88 53.12 4.83 53.61 3.83C53.65 3.76 53.66 3.67 53.64 3.6C53.62 3.52 53.57 3.45 53.5 3.41C53.43 3.37 53.34 3.36 53.27 3.38C53.19 3.4 53.12 3.45 53.08 3.52Z" fill="#000000" fill-opacity="1.000000" fill-rule="nonzero"/>
	<path id="Vector" d="M72.61 14.49C73.77 14.58 74.3 15.86 74.46 16.86C74.6 18.09 74.46 19.33 74.03 20.49C73.62 21.69 72.98 22.81 72.14 23.76C71.31 24.72 70.29 25.5 69.15 26.06L69.76 26.31C69.7 26.06 69.73 25.79 69.86 25.56C69.98 25.32 70.18 25.14 70.43 25.05C70.67 24.92 70.96 24.86 71.23 24.89C71.51 24.92 71.78 25.03 72 25.2C72.93 25.89 73.24 27.19 73.23 28.28C73.21 29.42 72.87 30.53 72.25 31.48C71.62 32.43 70.74 33.18 69.7 33.65C69.33 33.81 69.48 34.34 69.81 34.45C70.84 34.77 71.19 36.06 70.91 37.01C70.53 38.25 69.33 39.06 68.26 39.64C67.81 39.88 68.2 40.52 68.63 40.31C70.06 39.66 71.54 38.56 71.81 36.91C72.04 35.55 71.4 34.04 70.02 33.61L70.13 34.41C71.18 33.92 72.09 33.17 72.77 32.24C73.45 31.3 73.88 30.21 74.03 29.06C74.2 27.91 74.01 26.74 73.49 25.71C72.98 24.75 71.99 23.91 70.84 24.05C69.7 24.19 68.57 25.3 68.94 26.53C68.96 26.59 68.99 26.65 69.04 26.7C69.08 26.74 69.13 26.78 69.19 26.8C69.25 26.83 69.31 26.84 69.37 26.83C69.44 26.83 69.5 26.81 69.55 26.78C70.86 26.12 72.01 25.19 72.94 24.05C73.86 22.91 74.53 21.59 74.91 20.18C75.33 18.84 75.36 17.41 75.02 16.05C74.66 14.89 73.87 13.85 72.58 13.77C72.12 13.74 72.12 14.45 72.58 14.49L72.61 14.49Z" fill="#00E398" fill-opacity="1.000000" fill-rule="nonzero"/>
</svg>
